<svg width="38" height="38" viewBox="0 0 38 38" fill="none" xmlns="http://www.w3.org/2000/svg">
<path d="M10.0195 20.1133C11.4049 21.4987 13.0872 22.1914 15.0664 22.1914C17.0456 22.1914 18.7279 21.4987 20.1133 20.1133C21.4987 18.7279 22.1914 17.0456 22.1914 15.0664C22.1914 13.0872 21.4987 11.4049 20.1133 10.0195C18.7279 8.63411 17.0456 7.94141 15.0664 7.94141C13.0872 7.94141 11.4049 8.63411 10.0195 10.0195C8.63411 11.4049 7.94141 13.0872 7.94141 15.0664C7.94141 17.0456 8.63411 18.7279 10.0195 20.1133ZM24.5664 22.1914L32.4336 30.0586L30.0586 32.4336L22.1914 24.5664V23.3047L21.7461 22.8594C19.8659 24.4922 17.6393 25.3086 15.0664 25.3086C12.1966 25.3086 9.7474 24.319 7.71875 22.3398C5.73958 20.3607 4.75 17.9362 4.75 15.0664C4.75 12.1966 5.73958 9.77214 7.71875 7.79297C9.7474 5.76432 12.1966 4.75 15.0664 4.75C17.9362 4.75 20.3607 5.76432 22.3398 7.79297C24.319 9.77214 25.3086 12.1966 25.3086 15.0664C25.3086 17.6393 24.4922 19.8659 22.8594 21.7461L23.3047 22.1914H24.5664Z" fill="white"/>
</svg>
